# xmcd
#
# Track frame offsets:
#	150
#	11741
#	24356
#	36102
#	46647
#	58829
#	72709
#	85287
#	100006
#	113222
#	126352
#	136579
#	149559
#	161761
#	174316
#	187880
#	199446
#	212235
#	224337
#	235595
#	245254
#
# Disc length: 3435 seconds
#
# Revision: 0
# Processed by: cddbd v1.5.2PL0 Copyright (c) Steve Scherf et al.
# Submitted via: dBpowerAMP V4.0
#
DISCID=2e0d6915
DTITLE=Various Artist - Cradle Of Country and Western Music cd3
DYEAR=2004
DGENRE=Country
TTITLE0=Tennessee Ernie Ford - Shotgun Boogie
TTITLE1=Hank Williams - I just don´t like kid of living
TTITLE2=Gene Autry - Back in the Saddle again
TTITLE3=Hank Thompson - Whoa Sailor
TTITLE4=Hank Penny - When you cry
TTITLE5=Jimmie Rodgers - Treasures untold
TTITLE6=Hank Penny - Won´t you Ride
TTITLE7=Sons of the Pioneers - Riders in the sky
TTITLE8=Little Jimmy Dickens - Country Boy
TTITLE9=Johnny Bond - Birmingham Jail
TTITLE10=Louis Innis - Jug Band Boogie
TTITLE11=Jimmy Wyble - Taking my time
TTITLE12=Little Jimmy Dickens - A-Sleeping at foot of the bed
TTITLE13=Molly O´Day - The Tramp on the Street
TTITLE14=Jimmy Wyble - No more Blues
TTITLE15=Pee Wee King - Bull Fiddle Boogie
TTITLE16=Johnny Bond - Twilight on the Trail
TTITLE17=THe Delmore Brothers - Peach Street Boogie
TTITLE18=Dickie McBride - Tulsa Twist
TTITLE19=Tex Williams - Drop Dead
TTITLE20=Johnny Bond - Mexicali Rose
EXTD=
EXTT0=
EXTT1=
EXTT2=
EXTT3=
EXTT4=
EXTT5=
EXTT6=
EXTT7=
EXTT8=
EXTT9=
EXTT10=
EXTT11=
EXTT12=
EXTT13=
EXTT14=
EXTT15=
EXTT16=
EXTT17=
EXTT18=
EXTT19=
EXTT20=
PLAYORDER=
